<mxfile host="app.diagrams.net" modified="2022-02-25T07:04:03.001Z" agent="5.0 (Windows NT 10.0; Win64; x64) AppleWebKit/537.36 (KHTML, like Gecko) Chrome/97.0.4692.99 Safari/537.36 OPR/83.0.4254.46" etag="1FPQPpwJwIdg-lrY3ONX" version="16.6.2" type="github">
  <diagram id="OZFG6OfKiUKvitj1Ooh6" name="Page-1">
    <mxGraphModel dx="1559" dy="336" grid="1" gridSize="10" guides="1" tooltips="1" connect="1" arrows="1" fold="1" page="1" pageScale="1" pageWidth="850" pageHeight="1100" math="0" shadow="0">
      <root>
        <mxCell id="0" />
        <mxCell id="1" parent="0" />
        <mxCell id="ojVDbGATxQQFOBssAs5M-1" value="Application_Controller" style="swimlane;fontStyle=1;align=center;verticalAlign=top;childLayout=stackLayout;horizontal=1;startSize=26;horizontalStack=0;resizeParent=1;resizeParentMax=0;resizeLast=0;collapsible=1;marginBottom=0;" parent="1" vertex="1">
          <mxGeometry x="190" y="10" width="210" height="476" as="geometry" />
        </mxCell>
        <mxCell id="ojVDbGATxQQFOBssAs5M-2" value="+ udb: UserDB_Controller" style="text;strokeColor=none;fillColor=none;align=left;verticalAlign=top;spacingLeft=4;spacingRight=4;overflow=hidden;rotatable=0;points=[[0,0.5],[1,0.5]];portConstraint=eastwest;" parent="ojVDbGATxQQFOBssAs5M-1" vertex="1">
          <mxGeometry y="26" width="210" height="26" as="geometry" />
        </mxCell>
        <mxCell id="ojVDbGATxQQFOBssAs5M-19" value="+ mmdb: MindMapDB_Controller" style="text;strokeColor=none;fillColor=none;align=left;verticalAlign=top;spacingLeft=4;spacingRight=4;overflow=hidden;rotatable=0;points=[[0,0.5],[1,0.5]];portConstraint=eastwest;" parent="ojVDbGATxQQFOBssAs5M-1" vertex="1">
          <mxGeometry y="52" width="210" height="26" as="geometry" />
        </mxCell>
        <mxCell id="ojVDbGATxQQFOBssAs5M-18" value="+ ddb: DeckDB_Controller" style="text;strokeColor=none;fillColor=none;align=left;verticalAlign=top;spacingLeft=4;spacingRight=4;overflow=hidden;rotatable=0;points=[[0,0.5],[1,0.5]];portConstraint=eastwest;" parent="ojVDbGATxQQFOBssAs5M-1" vertex="1">
          <mxGeometry y="78" width="210" height="26" as="geometry" />
        </mxCell>
        <mxCell id="ojVDbGATxQQFOBssAs5M-25" value="+ mongoDBClient: MongoClient" style="text;strokeColor=none;fillColor=none;align=left;verticalAlign=top;spacingLeft=4;spacingRight=4;overflow=hidden;rotatable=0;points=[[0,0.5],[1,0.5]];portConstraint=eastwest;" parent="ojVDbGATxQQFOBssAs5M-1" vertex="1">
          <mxGeometry y="104" width="210" height="26" as="geometry" />
        </mxCell>
        <mxCell id="ojVDbGATxQQFOBssAs5M-35" value="+ app: WebServer" style="text;strokeColor=none;fillColor=none;align=left;verticalAlign=top;spacingLeft=4;spacingRight=4;overflow=hidden;rotatable=0;points=[[0,0.5],[1,0.5]];portConstraint=eastwest;" parent="ojVDbGATxQQFOBssAs5M-1" vertex="1">
          <mxGeometry y="130" width="210" height="26" as="geometry" />
        </mxCell>
        <mxCell id="ojVDbGATxQQFOBssAs5M-3" value="" style="line;strokeWidth=1;fillColor=none;align=left;verticalAlign=middle;spacingTop=-1;spacingLeft=3;spacingRight=3;rotatable=0;labelPosition=right;points=[];portConstraint=eastwest;" parent="ojVDbGATxQQFOBssAs5M-1" vertex="1">
          <mxGeometry y="156" width="210" height="8" as="geometry" />
        </mxCell>
        <mxCell id="ojVDbGATxQQFOBssAs5M-4" value="+ constructor(): void" style="text;strokeColor=none;fillColor=none;align=left;verticalAlign=top;spacingLeft=4;spacingRight=4;overflow=hidden;rotatable=0;points=[[0,0.5],[1,0.5]];portConstraint=eastwest;" parent="ojVDbGATxQQFOBssAs5M-1" vertex="1">
          <mxGeometry y="164" width="210" height="26" as="geometry" />
        </mxCell>
        <mxCell id="ojVDbGATxQQFOBssAs5M-8" value="+ getUser(): " style="text;strokeColor=none;fillColor=none;align=left;verticalAlign=top;spacingLeft=4;spacingRight=4;overflow=hidden;rotatable=0;points=[[0,0.5],[1,0.5]];portConstraint=eastwest;" parent="ojVDbGATxQQFOBssAs5M-1" vertex="1">
          <mxGeometry y="190" width="210" height="26" as="geometry" />
        </mxCell>
        <mxCell id="ojVDbGATxQQFOBssAs5M-20" value="+ postUser(): " style="text;strokeColor=none;fillColor=none;align=left;verticalAlign=top;spacingLeft=4;spacingRight=4;overflow=hidden;rotatable=0;points=[[0,0.5],[1,0.5]];portConstraint=eastwest;" parent="ojVDbGATxQQFOBssAs5M-1" vertex="1">
          <mxGeometry y="216" width="210" height="26" as="geometry" />
        </mxCell>
        <mxCell id="ojVDbGATxQQFOBssAs5M-49" value="+ authenticateUser(): " style="text;strokeColor=none;fillColor=none;align=left;verticalAlign=top;spacingLeft=4;spacingRight=4;overflow=hidden;rotatable=0;points=[[0,0.5],[1,0.5]];portConstraint=eastwest;" parent="ojVDbGATxQQFOBssAs5M-1" vertex="1">
          <mxGeometry y="242" width="210" height="26" as="geometry" />
        </mxCell>
        <mxCell id="ojVDbGATxQQFOBssAs5M-23" value="+ getNotes(): " style="text;strokeColor=none;fillColor=none;align=left;verticalAlign=top;spacingLeft=4;spacingRight=4;overflow=hidden;rotatable=0;points=[[0,0.5],[1,0.5]];portConstraint=eastwest;" parent="ojVDbGATxQQFOBssAs5M-1" vertex="1">
          <mxGeometry y="268" width="210" height="26" as="geometry" />
        </mxCell>
        <mxCell id="ojVDbGATxQQFOBssAs5M-16" value="+ postNotes(): " style="text;strokeColor=none;fillColor=none;align=left;verticalAlign=top;spacingLeft=4;spacingRight=4;overflow=hidden;rotatable=0;points=[[0,0.5],[1,0.5]];portConstraint=eastwest;" parent="ojVDbGATxQQFOBssAs5M-1" vertex="1">
          <mxGeometry y="294" width="210" height="26" as="geometry" />
        </mxCell>
        <mxCell id="ojVDbGATxQQFOBssAs5M-31" value="+ postNotesNames(): " style="text;strokeColor=none;fillColor=none;align=left;verticalAlign=top;spacingLeft=4;spacingRight=4;overflow=hidden;rotatable=0;points=[[0,0.5],[1,0.5]];portConstraint=eastwest;" parent="ojVDbGATxQQFOBssAs5M-1" vertex="1">
          <mxGeometry y="320" width="210" height="26" as="geometry" />
        </mxCell>
        <mxCell id="ojVDbGATxQQFOBssAs5M-12" value="+ getDeck(): " style="text;strokeColor=none;fillColor=none;align=left;verticalAlign=top;spacingLeft=4;spacingRight=4;overflow=hidden;rotatable=0;points=[[0,0.5],[1,0.5]];portConstraint=eastwest;" parent="ojVDbGATxQQFOBssAs5M-1" vertex="1">
          <mxGeometry y="346" width="210" height="26" as="geometry" />
        </mxCell>
        <mxCell id="ojVDbGATxQQFOBssAs5M-22" value="+ postDeck(): " style="text;strokeColor=none;fillColor=none;align=left;verticalAlign=top;spacingLeft=4;spacingRight=4;overflow=hidden;rotatable=0;points=[[0,0.5],[1,0.5]];portConstraint=eastwest;" parent="ojVDbGATxQQFOBssAs5M-1" vertex="1">
          <mxGeometry y="372" width="210" height="26" as="geometry" />
        </mxCell>
        <mxCell id="ojVDbGATxQQFOBssAs5M-30" value="+ postDeckNames(): " style="text;strokeColor=none;fillColor=none;align=left;verticalAlign=top;spacingLeft=4;spacingRight=4;overflow=hidden;rotatable=0;points=[[0,0.5],[1,0.5]];portConstraint=eastwest;" parent="ojVDbGATxQQFOBssAs5M-1" vertex="1">
          <mxGeometry y="398" width="210" height="26" as="geometry" />
        </mxCell>
        <mxCell id="ojVDbGATxQQFOBssAs5M-24" value="+ getFlashcard(): " style="text;strokeColor=none;fillColor=none;align=left;verticalAlign=top;spacingLeft=4;spacingRight=4;overflow=hidden;rotatable=0;points=[[0,0.5],[1,0.5]];portConstraint=eastwest;" parent="ojVDbGATxQQFOBssAs5M-1" vertex="1">
          <mxGeometry y="424" width="210" height="26" as="geometry" />
        </mxCell>
        <mxCell id="ojVDbGATxQQFOBssAs5M-21" value="+ postFlashcard(): " style="text;strokeColor=none;fillColor=none;align=left;verticalAlign=top;spacingLeft=4;spacingRight=4;overflow=hidden;rotatable=0;points=[[0,0.5],[1,0.5]];portConstraint=eastwest;" parent="ojVDbGATxQQFOBssAs5M-1" vertex="1">
          <mxGeometry y="450" width="210" height="26" as="geometry" />
        </mxCell>
        <mxCell id="ojVDbGATxQQFOBssAs5M-36" style="edgeStyle=orthogonalEdgeStyle;rounded=0;orthogonalLoop=1;jettySize=auto;html=1;endArrow=none;endFill=0;" parent="1" source="ojVDbGATxQQFOBssAs5M-5" target="ojVDbGATxQQFOBssAs5M-2" edge="1">
          <mxGeometry relative="1" as="geometry" />
        </mxCell>
        <mxCell id="ojVDbGATxQQFOBssAs5M-5" value="UserDB_Controller" style="swimlane;fontStyle=1;align=center;verticalAlign=top;childLayout=stackLayout;horizontal=1;startSize=26;horizontalStack=0;resizeParent=1;resizeParentMax=0;resizeLast=0;collapsible=1;marginBottom=0;" parent="1" vertex="1">
          <mxGeometry x="-10" y="210" width="180" height="138" as="geometry" />
        </mxCell>
        <mxCell id="ojVDbGATxQQFOBssAs5M-42" value="+ mongoDBClient: MongoClient" style="text;strokeColor=none;fillColor=none;align=left;verticalAlign=top;spacingLeft=4;spacingRight=4;overflow=hidden;rotatable=0;points=[[0,0.5],[1,0.5]];portConstraint=eastwest;" parent="ojVDbGATxQQFOBssAs5M-5" vertex="1">
          <mxGeometry y="26" width="180" height="26" as="geometry" />
        </mxCell>
        <mxCell id="ojVDbGATxQQFOBssAs5M-7" value="" style="line;strokeWidth=1;fillColor=none;align=left;verticalAlign=middle;spacingTop=-1;spacingLeft=3;spacingRight=3;rotatable=0;labelPosition=right;points=[];portConstraint=eastwest;" parent="ojVDbGATxQQFOBssAs5M-5" vertex="1">
          <mxGeometry y="52" width="180" height="8" as="geometry" />
        </mxCell>
        <mxCell id="ojVDbGATxQQFOBssAs5M-28" value="+ addUser(user): boolean" style="text;strokeColor=none;fillColor=none;align=left;verticalAlign=top;spacingLeft=4;spacingRight=4;overflow=hidden;rotatable=0;points=[[0,0.5],[1,0.5]];portConstraint=eastwest;" parent="ojVDbGATxQQFOBssAs5M-5" vertex="1">
          <mxGeometry y="60" width="180" height="26" as="geometry" />
        </mxCell>
        <mxCell id="ojVDbGATxQQFOBssAs5M-29" value="+ deleteUser(user): boolean" style="text;strokeColor=none;fillColor=none;align=left;verticalAlign=top;spacingLeft=4;spacingRight=4;overflow=hidden;rotatable=0;points=[[0,0.5],[1,0.5]];portConstraint=eastwest;" parent="ojVDbGATxQQFOBssAs5M-5" vertex="1">
          <mxGeometry y="86" width="180" height="26" as="geometry" />
        </mxCell>
        <mxCell id="ojVDbGATxQQFOBssAs5M-41" value="+ getUser(user): boolean" style="text;strokeColor=none;fillColor=none;align=left;verticalAlign=top;spacingLeft=4;spacingRight=4;overflow=hidden;rotatable=0;points=[[0,0.5],[1,0.5]];portConstraint=eastwest;" parent="ojVDbGATxQQFOBssAs5M-5" vertex="1">
          <mxGeometry y="112" width="180" height="26" as="geometry" />
        </mxCell>
        <mxCell id="ojVDbGATxQQFOBssAs5M-38" style="edgeStyle=orthogonalEdgeStyle;rounded=0;orthogonalLoop=1;jettySize=auto;html=1;entryX=1;entryY=0.5;entryDx=0;entryDy=0;endArrow=none;endFill=0;" parent="1" source="ojVDbGATxQQFOBssAs5M-9" target="ojVDbGATxQQFOBssAs5M-18" edge="1">
          <mxGeometry relative="1" as="geometry">
            <Array as="points">
              <mxPoint x="460" y="101" />
            </Array>
          </mxGeometry>
        </mxCell>
        <mxCell id="ojVDbGATxQQFOBssAs5M-9" value="DeckDB_Controller" style="swimlane;fontStyle=1;align=center;verticalAlign=top;childLayout=stackLayout;horizontal=1;startSize=26;horizontalStack=0;resizeParent=1;resizeParentMax=0;resizeLast=0;collapsible=1;marginBottom=0;" parent="1" vertex="1">
          <mxGeometry x="425" y="226" width="265" height="190" as="geometry" />
        </mxCell>
        <mxCell id="ojVDbGATxQQFOBssAs5M-43" value="+ mongoDBClient: MongoClient" style="text;strokeColor=none;fillColor=none;align=left;verticalAlign=top;spacingLeft=4;spacingRight=4;overflow=hidden;rotatable=0;points=[[0,0.5],[1,0.5]];portConstraint=eastwest;" parent="ojVDbGATxQQFOBssAs5M-9" vertex="1">
          <mxGeometry y="26" width="265" height="26" as="geometry" />
        </mxCell>
        <mxCell id="ojVDbGATxQQFOBssAs5M-45" value="+ defaultPath: String" style="text;strokeColor=none;fillColor=none;align=left;verticalAlign=top;spacingLeft=4;spacingRight=4;overflow=hidden;rotatable=0;points=[[0,0.5],[1,0.5]];portConstraint=eastwest;" parent="ojVDbGATxQQFOBssAs5M-9" vertex="1">
          <mxGeometry y="52" width="265" height="26" as="geometry" />
        </mxCell>
        <mxCell id="ojVDbGATxQQFOBssAs5M-11" value="" style="line;strokeWidth=1;fillColor=none;align=left;verticalAlign=middle;spacingTop=-1;spacingLeft=3;spacingRight=3;rotatable=0;labelPosition=right;points=[];portConstraint=eastwest;" parent="ojVDbGATxQQFOBssAs5M-9" vertex="1">
          <mxGeometry y="78" width="265" height="8" as="geometry" />
        </mxCell>
        <mxCell id="ojVDbGATxQQFOBssAs5M-26" value="+ addDeck(User user, Deck deck): boolean " style="text;strokeColor=none;fillColor=none;align=left;verticalAlign=top;spacingLeft=4;spacingRight=4;overflow=hidden;rotatable=0;points=[[0,0.5],[1,0.5]];portConstraint=eastwest;" parent="ojVDbGATxQQFOBssAs5M-9" vertex="1">
          <mxGeometry y="86" width="265" height="26" as="geometry" />
        </mxCell>
        <mxCell id="ojVDbGATxQQFOBssAs5M-27" value="+ deleteDeck(User user, Deck deck): boolean " style="text;strokeColor=none;fillColor=none;align=left;verticalAlign=top;spacingLeft=4;spacingRight=4;overflow=hidden;rotatable=0;points=[[0,0.5],[1,0.5]];portConstraint=eastwest;" parent="ojVDbGATxQQFOBssAs5M-9" vertex="1">
          <mxGeometry y="112" width="265" height="26" as="geometry" />
        </mxCell>
        <mxCell id="ojVDbGATxQQFOBssAs5M-40" value="+ getDeck(User user, string name): Deck " style="text;strokeColor=none;fillColor=none;align=left;verticalAlign=top;spacingLeft=4;spacingRight=4;overflow=hidden;rotatable=0;points=[[0,0.5],[1,0.5]];portConstraint=eastwest;" parent="ojVDbGATxQQFOBssAs5M-9" vertex="1">
          <mxGeometry y="138" width="265" height="26" as="geometry" />
        </mxCell>
        <mxCell id="ojVDbGATxQQFOBssAs5M-39" value="+ getDeckName(User user): String " style="text;strokeColor=none;fillColor=none;align=left;verticalAlign=top;spacingLeft=4;spacingRight=4;overflow=hidden;rotatable=0;points=[[0,0.5],[1,0.5]];portConstraint=eastwest;" parent="ojVDbGATxQQFOBssAs5M-9" vertex="1">
          <mxGeometry y="164" width="265" height="26" as="geometry" />
        </mxCell>
        <mxCell id="ojVDbGATxQQFOBssAs5M-37" style="edgeStyle=orthogonalEdgeStyle;rounded=0;orthogonalLoop=1;jettySize=auto;html=1;entryX=1;entryY=0.5;entryDx=0;entryDy=0;endArrow=none;endFill=0;" parent="1" source="ojVDbGATxQQFOBssAs5M-13" target="ojVDbGATxQQFOBssAs5M-19" edge="1">
          <mxGeometry relative="1" as="geometry">
            <Array as="points">
              <mxPoint x="450" y="75" />
              <mxPoint x="450" y="75" />
            </Array>
          </mxGeometry>
        </mxCell>
        <mxCell id="ojVDbGATxQQFOBssAs5M-13" value="MindMapDB_Controller" style="swimlane;fontStyle=1;align=center;verticalAlign=top;childLayout=stackLayout;horizontal=1;startSize=26;horizontalStack=0;resizeParent=1;resizeParentMax=0;resizeLast=0;collapsible=1;marginBottom=0;" parent="1" vertex="1">
          <mxGeometry x="480" y="20" width="270" height="164" as="geometry">
            <mxRectangle x="460" y="140" width="170" height="26" as="alternateBounds" />
          </mxGeometry>
        </mxCell>
        <mxCell id="ojVDbGATxQQFOBssAs5M-44" value="+ mongoDBClient: MongoClient" style="text;strokeColor=none;fillColor=none;align=left;verticalAlign=top;spacingLeft=4;spacingRight=4;overflow=hidden;rotatable=0;points=[[0,0.5],[1,0.5]];portConstraint=eastwest;" parent="ojVDbGATxQQFOBssAs5M-13" vertex="1">
          <mxGeometry y="26" width="270" height="26" as="geometry" />
        </mxCell>
        <mxCell id="ojVDbGATxQQFOBssAs5M-46" value="+ defaultPath: String" style="text;strokeColor=none;fillColor=none;align=left;verticalAlign=top;spacingLeft=4;spacingRight=4;overflow=hidden;rotatable=0;points=[[0,0.5],[1,0.5]];portConstraint=eastwest;" parent="ojVDbGATxQQFOBssAs5M-13" vertex="1">
          <mxGeometry y="52" width="270" height="26" as="geometry" />
        </mxCell>
        <mxCell id="ojVDbGATxQQFOBssAs5M-15" value="" style="line;strokeWidth=1;fillColor=none;align=left;verticalAlign=middle;spacingTop=-1;spacingLeft=3;spacingRight=3;rotatable=0;labelPosition=right;points=[];portConstraint=eastwest;" parent="ojVDbGATxQQFOBssAs5M-13" vertex="1">
          <mxGeometry y="78" width="270" height="8" as="geometry" />
        </mxCell>
        <mxCell id="ojVDbGATxQQFOBssAs5M-32" value="+ addNotes(User user, JSON notes): boolean " style="text;strokeColor=none;fillColor=none;align=left;verticalAlign=top;spacingLeft=4;spacingRight=4;overflow=hidden;rotatable=0;points=[[0,0.5],[1,0.5]];portConstraint=eastwest;" parent="ojVDbGATxQQFOBssAs5M-13" vertex="1">
          <mxGeometry y="86" width="270" height="26" as="geometry" />
        </mxCell>
        <mxCell id="ojVDbGATxQQFOBssAs5M-33" value="+ deleteNotes(User user, JSON notes): boolean " style="text;strokeColor=none;fillColor=none;align=left;verticalAlign=top;spacingLeft=4;spacingRight=4;overflow=hidden;rotatable=0;points=[[0,0.5],[1,0.5]];portConstraint=eastwest;" parent="ojVDbGATxQQFOBssAs5M-13" vertex="1">
          <mxGeometry y="112" width="270" height="26" as="geometry" />
        </mxCell>
        <mxCell id="ojVDbGATxQQFOBssAs5M-47" value="+ getNotes(User user, String name): JSON " style="text;strokeColor=none;fillColor=none;align=left;verticalAlign=top;spacingLeft=4;spacingRight=4;overflow=hidden;rotatable=0;points=[[0,0.5],[1,0.5]];portConstraint=eastwest;" parent="ojVDbGATxQQFOBssAs5M-13" vertex="1">
          <mxGeometry y="138" width="270" height="26" as="geometry" />
        </mxCell>
      </root>
    </mxGraphModel>
  </diagram>
</mxfile>
